# xmcd CD database file
#
# Track frame offsets:
#	150
#	14712
#	31797
#
# Disc length: 615 seconds
#
# Revision: 0
# Processed by: cddbd v1.5.1PL2 Copyright (c) Steve Scherf et al.
# Submitted via: CDex 1.51
#
DISCID=1b026503
DTITLE=上木彩矢 - ピエロ
DYEAR=2006
DGENRE=Pop
TTITLE0=ピエロ
TTITLE1=桜絵
TTITLE2=ピエロ -instrumental-
EXTD=YEAR: 2006
EXTT0=
EXTT1=
EXTT2=
PLAYORDER=
